<?xml version="1.0" encoding="iso-8859-1"?>
<!-- Generator: Adobe Illustrator 19.0.0, SVG Export Plug-In . SVG Version: 6.00 Build 0)  -->
<svg version="1.1" id="Layer_1" xmlns="http://www.w3.org/2000/svg" xmlns:xlink="http://www.w3.org/1999/xlink" x="0px" y="0px"
	 viewBox="0 0 512 512" style="enable-background:new 0 0 512 512;" xml:space="preserve">
<g>
	<g>
		<path d="M301.283,205.972c-4.5-2.115-8.983-4.213-13.44-6.289c-5.105-2.377-11.174-0.165-13.552,4.94
			c-2.377,5.107-0.166,11.173,4.94,13.552c4.433,2.063,8.894,4.151,13.37,6.257c1.402,0.659,2.879,0.971,4.334,0.971
			c3.829,0,7.5-2.166,9.236-5.86C308.57,214.445,306.381,208.37,301.283,205.972z"/>
	</g>
</g>
<g>
	<g>
		<path d="M476.165,303.14c-16.708-16.709-63.253-43.412-142.294-81.636c-5.07-2.449-11.169-0.33-13.622,4.742
			c-2.452,5.071-0.329,11.169,4.742,13.622c94.518,45.708,126.534,67.48,136.751,77.696c19.255,19.255,29.86,44.856,29.86,72.088
			c0,11.983-2.055,23.649-5.995,34.598c-0.754-3.032-1.669-6.134-2.754-9.304c-8.133-23.76-24.871-49.104-47.131-71.364
			c-33.38-33.38-174.505-130.807-243.769-177.961l8.642-8.643c3.983-3.983,3.983-10.441,0-14.425L61.027,2.986
			c-3.983-3.982-10.441-3.982-14.425,0L2.987,46.602C1.075,48.516,0,51.109,0,53.814c0,2.705,1.075,5.298,2.987,7.212
			l139.57,139.569c1.912,1.912,4.506,2.987,7.212,2.987c2.706,0,5.299-1.075,7.212-2.987l2.185-2.185
			c42.13,95.439,111.166,244.945,143.975,277.754C326.248,499.273,356.972,512,389.652,512s63.404-12.727,86.513-35.835
			S512,422.333,512,389.652S499.273,326.249,476.165,303.14z M149.768,178.959L24.623,53.814l29.192-29.191L178.96,149.767
			L149.768,178.959z M389.652,491.602c-27.231,0-52.833-10.605-72.088-29.861c-19.421-19.42-61.084-98.012-114.436-215.116
			c49.654,71.804,114.471,163.113,140.455,189.097c22.26,22.26,47.604,38.998,71.364,47.13c3.18,1.088,6.286,1.989,9.328,2.744
			C413.319,489.542,401.645,491.602,389.652,491.602z M466.785,452.36L280.551,266.126c-3.983-3.982-10.441-3.982-14.425,0
			c-3.983,3.983-3.983,10.441,0,14.425l186.233,186.233c-7.9,2.017-18.546,0.966-30.807-3.23
			c-20.875-7.146-43.442-22.152-63.546-42.256c-31.246-31.246-123.119-163.97-171.225-234.516
			c70.659,48.182,203.275,139.985,234.517,171.227c20.104,20.103,35.11,42.669,42.255,63.544
			C467.751,433.814,468.802,444.46,466.785,452.36z"/>
	</g>
</g>
<g>
</g>
<g>
</g>
<g>
</g>
<g>
</g>
<g>
</g>
<g>
</g>
<g>
</g>
<g>
</g>
<g>
</g>
<g>
</g>
<g>
</g>
<g>
</g>
<g>
</g>
<g>
</g>
<g>
</g>
</svg>
